<svg xmlns="http://www.w3.org/2000/svg" width="32" height="32" viewBox="0 0 32 32" fill="none">
  <!-- hotspot: 9 23 -->
  <path d="M3 28 Q12 22 26 30" stroke="#ceb26f" stroke-width="3.2" stroke-linecap="round" opacity="0.75"/>
  <path d="M5 27 Q13 23 24 29" stroke="#f0e2c4" stroke-width="1.2" stroke-linecap="round" opacity="0.45"/>
  <g transform="translate(32 0) scale(-1 1)">
    <ellipse cx="7" cy="27" rx="4.5" ry="2.2" fill="#ceb26f" opacity="0.3"/>
    <g transform="translate(2 2) rotate(-48 11 13)">
      <path d="M9.5 1.5c1.4 0 2.4 1.1 2.6 2.8l1.1 17.2H6.8L7.9 4.3c.2-1.7 1.2-2.8 2.6-2.8z" fill="#3a2f24" stroke="#e4c88a" stroke-width="0.85"/>
      <path d="M6.6 5.5 3.2 13.5 6.8 17.5" fill="#6b5340" stroke="#e4c88a" stroke-width="0.5"/>
      <rect x="7.2" y="19.8" width="5.6" height="2.4" rx="0.55" fill="#e4c88a"/>
      <path d="M7.2 22.2 10 26.8 12.8 22.2" fill="#fff8ec" stroke="#1f1812" stroke-width="0.55"/>
      <path d="M10 22.2v4.2" stroke="#1a1610" stroke-width="0.5" stroke-linecap="round"/>
    </g>
  </g>
</svg>
