<svg xmlns="http://www.w3.org/2000/svg" width="32" height="32" viewBox="0 0 32 32" fill="none">
  <g transform="translate(32 0) scale(-1 1)">
    <circle cx="7" cy="27" r="5" fill="#ceb26f" opacity="0.22"/>
    <circle cx="7" cy="27" r="2.8" fill="#f0e2c4" opacity="0.95"/>
    <path d="M3 29.5 Q7 27.5 11 29.5" stroke="#ceb26f" stroke-width="1.1" stroke-linecap="round" opacity="0.75"/>
    <g transform="translate(4 0) rotate(-24 11 13)">
      <path d="M9.5 1.5c1.4 0 2.4 1.1 2.6 2.8l1.1 17.2H6.8L7.9 4.3c.2-1.7 1.2-2.8 2.6-2.8z" fill="#3a2f24" stroke="#e4c88a" stroke-width="0.85"/>
      <path d="M6.6 5.5 3.2 13.5 6.8 17.5" fill="#6b5340" stroke="#e4c88a" stroke-width="0.5" opacity="0.95"/>
      <path d="M12.4 5.5 15.8 12.5 12.2 16.5" fill="#5a4538" stroke="#e4c88a" stroke-width="0.5" opacity="0.9"/>
      <path d="M8.4 1.2c.8-.4 1.8-.4 2.6 0" stroke="#fff3dc" stroke-width="0.7" opacity="0.8" stroke-linecap="round"/>
      <rect x="7.2" y="19.8" width="5.6" height="2.4" rx="0.55" fill="#e4c88a"/>
      <path d="M7.2 22.2 10 26.4 12.8 22.2" fill="#fff8ec" stroke="#1f1812" stroke-width="0.55"/>
      <path d="M10 22.2v3.8" stroke="#1a1610" stroke-width="0.45" stroke-linecap="round"/>
    </g>
    <path d="M14 5 L15.5 3.5" stroke="#f0e2c4" stroke-width="0.9" stroke-linecap="round" opacity="0.85"/>
    <path d="M16 7 L17.2 5.8" stroke="#ceb26f" stroke-width="0.7" stroke-linecap="round" opacity="0.7"/>
  </g>
</svg>
