<svg xmlns="http://www.w3.org/2000/svg" width="32" height="32" viewBox="0 0 32 32" fill="none">
  <defs>
    <radialGradient id="lens-glass" cx="40%" cy="35%" r="65%">
      <stop offset="0%" stop-color="#f5edd8" stop-opacity="0.55"/>
      <stop offset="55%" stop-color="#e4d8be" stop-opacity="0.18"/>
      <stop offset="100%" stop-color="#110d08" stop-opacity="0.35"/>
    </radialGradient>
    <radialGradient id="lens-glint" cx="30%" cy="28%" r="35%">
      <stop offset="0%" stop-color="#fff8ea" stop-opacity="0.85"/>
      <stop offset="100%" stop-color="#fff8ea" stop-opacity="0"/>
    </radialGradient>
  </defs>
  <circle cx="18" cy="12" r="9.25" fill="#110d08" stroke="#e4c88a" stroke-width="1.85"/>
  <circle cx="18" cy="12" r="7.25" fill="url(#lens-glass)" stroke="#e4d8be" stroke-width="0.85" opacity="0.92"/>
  <circle cx="15.1" cy="9.4" r="2.1" fill="url(#lens-glint)"/>
  <path d="M13 17.5 6.5 24" stroke="#e4c88a" stroke-width="2.75" stroke-linecap="round"/>
  <path d="M13.2 17.1 7.2 23.1" stroke="#f0e2c4" stroke-width="0.9" stroke-linecap="round" opacity="0.45"/>
  <path d="M18 7.4v9.2M13.4 12h9.2" stroke="#f0e2c4" stroke-width="1.65" stroke-linecap="round"/>
  <path d="M18 7.4v9.2M13.4 12h9.2" stroke="#ceb26f" stroke-width="0.55" stroke-linecap="round" opacity="0.55"/>
  <g transform="translate(32 0) scale(-1 1)">
    <g transform="translate(21 19) rotate(-32 3 5)">
      <path d="M2.2 0.5c.7 0 1.2.55 1.3 1.4l.55 8.6H1.5L2 1.9c.1-.85.6-1.4 1.3-1.4z" fill="#3a2f24" stroke="#ceb26f" stroke-width="0.5"/>
      <path d="M1.4 10.1 3.2 12.4 5 10.1" fill="#e8dcc4" stroke="#1f1812" stroke-width="0.4"/>
    </g>
  </g>
</svg>
